<svg xmlns="http://www.w3.org/2000/svg" width="500" height="500" viewBox="0 0 132.292 132.292"><g transform="translate(0 -164.708)"><path d="M58.064 277.294l-14.146 6.542s-4.64 3.63.207 7.175c4.846 3.546 14.129 2.534 14.129 2.534l13.256-6.597s4.496-5.387 1.633-7.895c-2.863-2.508-15.92-1.228-15.078-1.76z" color="#000"/><path d="M45.877 235.692l-.386 4.642-5.023 2.709-22.794-1.935v-6.577l28.202 1.16zm-35.451-31.268s-20.298 6.012-4.25 34.824c.266.478-4.25-16.638 8.5-18.96 12.749-2.32-3.091-15.476-4.25-15.863z"/><path d="M3.769 185.875l3.862-1.743 18.16 28.827-5.219 18.38-4.44-.582-12.364-44.882z" stroke="#000" stroke-width=".768"/><path d="M120.83 210.254c1.545 1.934 1.063 15.458-.773 25.149-1.47 7.754-12.275 18.448-21.599 26-9.324 7.551-14.765 2.825-14.765 2.825l-9.54-23.046 1.215-1.009 21.894-21.795 23.567-8.125z" fill="#0b1728"/><path d="M98.53 170.242c-7.581.185-12.92 4.808-12.677 13.55l-.044 8.102c-2.088.28-5.277.971-5.277 2.642 0 1.591 3.214 3.47 5.505 4.045l.13 4.078s3.973 4.55 8.859 5.137l3.305 10.521 17.868-11.27-5.179-10.7c1.807-.816 4.397-2.537 5.489-6.036 1.763-5.65 1.473-11.747-5.58-16.69-2.204-1.546-8.954-3.464-12.4-3.38z" fill="#f6e6cc" stroke="#000" stroke-width="2.305" stroke-linecap="round" stroke-linejoin="round"/><path d="M101.324 186.67l-13.606.409-2.543.122 1.392 8.459.743-.143-.384-6.873 13.557-1.03c2.934-.212 2.425 2.195 2.64 3.865.249 1.928-2.715 2.644-1.223 2.404 1.491-.242 2.977-1.434 2.231-5.047-.373-1.806-1.635-2.217-2.807-2.163z" fill="#000c00"/><path d="M8.407 184.55l13.135 2.709 11.977 40.24-12.749 3.095-12.363-46.043z" fill="#fff" stroke="#000" stroke-width="2.305" stroke-linecap="round" stroke-linejoin="round"/><path d="M47.314 234.367l-11.59-3.87-18.159 3.87 24.726 4.643 5.022-4.643z" fill="#4d4d4d" stroke="#000" stroke-width=".722"/><path d="M73.897 223.768c-1.757.031-6.518.677-7.773 1.354-5.023 2.708-10.422 8.816-10.422 8.816l-2.248-1.693-.016-.066-2.378-2.623c-.304.453-12.103-.103-16.632.29 0 0-.793 3.486 4.466 3.491 2.055-.552 3.665-.122 5.656.44l-5.656 6.916s3.057 2.5 5.761-2.53c.557-1.036 4.266-.558 4.825-.716.827 2.6 2.054 5.432 3.518 5.432 2.704 0 32.84-3.105 34.772-7.748 1.932-4.643-3.864-11.993-4.25-12.38 0 0-1.613.57-6.883.624l-2.74.392h0z" fill="#f6e6cc" stroke="#000" stroke-width="2.305" stroke-linecap="round" stroke-linejoin="round"/><path d="M93.968 196.21c-.161.493-.797 1.725-3.387 3.604-1.455 1.055-3.186 1.205-4.69 1.044v1.288c2.267.573 4.427-.137 5.586-.995 1.623-1.203 2.354-4.31 2.491-4.941z" fill="#001400"/><path d="M85.607 190.645l4.055 1.643s-2.8-6.477-4.055-1.643z" color="#000"/><path d="M74.857 242.846l-23.474 6.042c-6.217 1.6-14.535 7.415-6.582 18.126 7.953 10.711 9.383 15.787 11.408 17.303 5.965 4.463 17.414-7.485 17.414-7.485l-7.65-11.685s22.816.494 25.01-.056c2.193-.549-14.48-21.696-16.126-22.246z" color="#000" fill="#6c5d53" stroke="#000" stroke-width="2.305" stroke-linecap="round" stroke-linejoin="round"/><rect x="149.928" y="187.532" width="8.626" height="34.78" transform="rotate(7.588) skewX(.01)" ry="4.938" color="#000" stroke="#000" stroke-width=".918"/><path d="M78.178 239.666c-6.75 0-12.205 5.511-12.205 12.302h48.693c0-6.79-5.454-12.302-12.205-12.302H78.178zm0 2.012h24.283c5.674 0 10.205 4.577 10.205 10.29H67.975c0-5.713 4.53-10.29 10.205-10.29z" style="text-indent:0;text-transform:none" color="#000" fill="#fff"/><path d="M76.355 241.256c-7.158 0-12.91 5.784-12.91 12.953v5.527c0 7.169 5.752 12.953 12.91 12.953h27.98c7.158 0 12.91-5.784 12.91-12.953v-5.527c0-7.168-5.752-12.953-12.91-12.953zm-1.752 7.69h31.939c4.584 0 8.278 3.7 8.278 8.29v3.533c0 1.465-.37 2.821-1.032 4.014-.474-1.783-3.282-3.16-6.719-3.173l-33.09-.098c-3.341 0-6.125 1.25-6.742 2.956a8.26 8.26 0 0 1-.888-3.7v-3.533c0-4.59 3.67-8.29 8.255-8.29zm10.388-78.175s-2.002 3.883 1 4.088c3.003.206 3.103-.817 3.103-.817s7.407-2.76 8.408 1.737c1 4.495-.6 5.006-.6 5.006s1.9 2.146 1.4 3.577c-.5 1.43 4.004.204 4.004.204s3.602-1.124 3.803 2.452c.2 3.577.2 5.007.2 5.007l6.806 3.372s4.003-1.84 4.904-5.927c.9-4.086.7-12.056-2.803-14.918-3.503-2.86-13.111-7.765-18.115-6.232-5.004 1.532-11.21 5.62-12.11 2.452z" color="#000"/><path d="M110.402 206.544s8.5-2.322 11.204 3.869c2.704 6.19.772 12.382-5.795 15.476-6.568 3.096-24.726 11.221-24.726 11.221s-.773 1.16-3.864.387c-3.09-.774-5.408-12.382-5.795-16.25-.386-3.87 8.113-5.804 11.978-6.965 3.863-1.16 18.158-8.512 16.998-7.738z" fill="#0b1728"/></g></svg>